<svg width="1125" height="842" viewBox="0 0 1125 842" fill="none" xmlns="http://www.w3.org/2000/svg">
<g clip-path="url(#clip0_3_395)">
<path d="M659.355 324.66V661.635H647.262V324.66H659.355Z" fill="#DDDDDD"/>
<path d="M663.002 341.323C662.026 340.52 662.208 338.9 663.344 338.391C674.318 333.475 718.743 316.64 768.631 340.195C811.725 360.544 835.988 349.922 845.469 343.29C846.838 342.334 848.502 343.966 847.747 345.517C843.599 354.049 833.244 368.692 810.14 372.086C808.546 372.319 808.213 374.648 809.689 375.337C816.882 378.699 831.55 383.227 849.856 376.387C851.531 375.763 852.765 378.121 851.39 379.321C840.948 388.435 816.692 403.227 774.647 395.33C717.277 384.555 682.332 413.418 680.55 414.93C680.495 414.975 680.453 415.006 680.393 415.046C678.791 416.066 656.859 431.912 663.093 420.78C681.908 387.182 671.256 348.112 663.002 341.323Z" fill="#F2910A" fill-opacity="0.75"/>
<path d="M649.658 659.407C327.797 659.407 148.64 841.563 148.863 841.563H1150.45C1150.45 841.563 958.5 659.407 649.658 659.407Z" fill="#282F7A"/>
<path d="M239.59 773.499C233.191 774.478 175.605 818.548 175.605 818.548C175.605 818.548 415.09 819.528 471.761 813.652C528.433 807.776 630.808 787.21 584.191 788.189C386.62 792.339 245.988 772.52 239.59 773.499Z" fill="#323A93"/>
<path d="M845.613 686.339C815.449 688.297 589.732 712.781 471.762 712.781C421.488 712.781 539.366 730.409 585.105 730.409C628.066 730.409 663.715 729.429 663.715 729.429C663.715 729.429 587.847 737.264 565.91 752.933C543.973 768.603 577.793 760.768 593.332 760.768C608.871 760.768 1005.57 751.954 1036.65 763.706C1067.73 775.458 875.777 684.38 845.613 686.339Z" fill="#323A93"/>
<path d="M1068.64 781.334C1040.31 762.726 666.162 786.091 503.754 840.094C477.246 848.908 1146.34 839.114 1146.34 839.114C1146.34 839.114 1096.98 799.941 1068.64 781.334Z" fill="#323A93"/>
<path d="M573.274 609.843C572.947 610.359 572.29 610.494 571.809 610.144L565.096 605.26C564.614 604.91 564.489 604.207 564.816 603.691L569.374 596.498C569.701 595.982 570.357 595.847 570.839 596.198L577.552 601.081C578.034 601.431 578.159 602.135 577.832 602.651L573.274 609.843Z" fill="#A5A5A5"/>
<path d="M1012.02 627.923C1011.7 628.439 1011.04 628.574 1010.56 628.223L1003.85 623.34C1003.36 622.99 1003.24 622.287 1003.57 621.77L1008.12 614.578C1008.45 614.062 1009.11 613.927 1009.59 614.277L1016.3 619.161C1016.78 619.511 1016.91 620.214 1016.58 620.73L1012.02 627.923Z" fill="#A5A5A5"/>
<path d="M989.524 426.03C989.197 426.546 988.54 426.68 988.059 426.33L981.346 421.447C980.864 421.097 980.739 420.393 981.066 419.877L985.624 412.684C985.951 412.168 986.607 412.034 987.089 412.384L993.802 417.267C994.284 417.618 994.409 418.321 994.082 418.837L989.524 426.03Z" fill="#A5A5A5"/>
<path d="M316.093 563.182C315.766 563.698 315.11 563.832 314.628 563.482L307.915 558.599C307.433 558.248 307.308 557.545 307.635 557.029L312.193 549.836C312.52 549.32 313.177 549.186 313.658 549.536L320.371 554.419C320.853 554.77 320.978 555.473 320.651 555.989L316.093 563.182Z" fill="#A5A5A5"/>
<path d="M438.894 406.047C438.567 406.563 437.91 406.698 437.429 406.347L430.716 401.464C430.234 401.114 430.109 400.41 430.436 399.894L434.994 392.701C435.321 392.185 435.977 392.051 436.459 392.401L443.172 397.284C443.654 397.635 443.779 398.338 443.452 398.854L438.894 406.047Z" fill="#A5A5A5"/>
<path d="M765.144 565.754C764.817 566.27 764.161 566.404 763.679 566.054L756.966 561.171C756.484 560.82 756.359 560.117 756.686 559.601L761.244 552.408C761.571 551.892 762.227 551.758 762.709 552.108L769.422 556.991C769.904 557.342 770.029 558.045 769.702 558.561L765.144 565.754Z" fill="#A5A5A5"/>
<path d="M416.491 502.911C421.521 498.646 416.615 486.936 416.615 486.936L411.285 485.707L401.738 490.46C401.738 490.46 407.766 510.309 416.491 502.911Z" fill="#EFA99B"/>
<path d="M406.701 492.521C413.054 492.316 419.127 487.43 420.995 481.022C419.041 481.973 416.824 482.011 414.692 481.945C412.56 481.879 410.383 481.733 408.32 482.362C406.257 482.992 404.288 484.596 403.84 486.795C401.46 486.468 399.468 489.032 399.008 491.521C398.519 494.157 399.171 496.971 400.744 499.035C402.318 501.098 405.518 501.902 408.068 501.968C406.335 500.367 403.49 495.994 407.156 496.663C407.189 494.697 406.701 492.521 406.701 492.521Z" fill="#2E464D"/>
<path d="M418.441 685.19L418.553 690.386L407.345 697.251L425.606 695.448L424.351 683.507L418.441 685.19Z" fill="#202C35"/>
<path d="M457.144 682.359L457.616 687.521L469.477 692.376L451.199 693.753L450.549 682.188L457.144 682.359Z" fill="#202C35"/>
<path d="M452.694 557.814L459.999 686.467L448.823 687.429C448.823 687.429 437.843 609.625 431.146 576.446C428.263 610.45 424.77 686.964 424.77 686.964L414.864 687.817L407.797 563.357L452.694 557.814Z" fill="#2E464D"/>
<path d="M356.452 501.062C356.452 501.062 353.997 494.802 351.986 494.766L352.706 497.058C352.706 497.058 349.602 495.426 348.636 493.883C347.669 492.343 345.518 498.632 348.114 500.771C350.709 502.909 353.368 503.914 353.368 503.914L356.452 501.062Z" fill="#EFA99B"/>
<path d="M467.315 480.051C467.315 480.051 469.051 473.426 471.039 473.038L470.579 475.433C470.579 475.433 473.473 473.277 474.258 471.581C475.044 469.887 477.872 475.741 475.539 478.311C473.207 480.88 470.686 482.339 470.686 482.339L467.315 480.051Z" fill="#EFA99B"/>
<path d="M437.927 516.365C448.281 536.668 459.819 578.025 459.819 578.025C449.284 583.107 402.784 587.171 402.784 587.171C402.784 587.171 405.488 535.022 399.901 513.542C411.633 511.532 414.439 510.069 416.858 509.681C422.345 508.802 427.49 505.91 432.14 504.768C436.638 503.664 435.952 506.153 437.927 516.365Z" fill="#EEEFF4"/>
<path d="M468.213 477.696L475.344 482.997C475.344 482.997 446.582 516.479 432.013 520.165L426.169 506.591C426.169 506.591 461.768 484.217 468.213 477.696Z" fill="#EEEFF4"/>
<path d="M402.767 512.372C402.767 512.372 370.728 513.838 356.176 501.186L349.823 507.778C349.823 507.778 377.462 528.505 403.592 528.093L402.767 512.372Z" fill="#EEEFF4"/>
<path d="M416.924 501.159C416.727 502.071 420.801 508.54 420.801 508.54C421.388 511.208 414.688 514.644 413.628 510.995L411.396 503.267L416.924 501.159Z" fill="#EFA99B"/>
<path d="M899.167 584.465C896.509 584.807 881.242 578.594 875.018 572.211C875.018 572.211 886.031 539.951 886.376 531.733C886.721 523.515 892.218 506.776 896.981 520.255C901.744 533.732 899.167 584.465 899.167 584.465Z" fill="#63DCC1"/>
<path d="M889.623 686.605L889.559 692.121L877.415 698.302L897.31 700.447L895.415 685.644L889.623 686.605Z" fill="#1F2D36"/>
<path d="M911.763 571.297C911.228 581.335 896.961 691.673 896.961 691.673L889.112 692.285L886.933 569.9L911.763 571.297Z" fill="#1D2D33"/>
<path d="M879.597 685.665L879.534 691.181L867.389 697.363L887.276 699.442L885.39 684.705L879.597 685.665Z" fill="#1F2D36"/>
<path d="M901.736 570.299C901.195 580.341 886.842 690.735 886.842 690.735L878.966 691.351L880.45 568.355L901.736 570.299Z" fill="#33464B"/>
<path d="M905.386 576.884C888.843 575.637 881.139 570.115 880.383 568.4C879.625 566.685 880.939 565.684 881.65 563.538C884.482 555.002 891.556 533.091 891.831 526.527C892.176 518.313 897.662 501.581 902.42 515.054C907.179 528.528 905.386 576.884 905.386 576.884Z" fill="#A5A5A5"/>
<path d="M822.995 529.246L861.545 569.466L873.263 550.96L839.526 519.408L822.995 529.246Z" fill="#F0EFED"/>
<path d="M826.004 529.979L861.708 566.085L871.734 550.994L839.602 520.914L826.004 529.979Z" fill="#A5A5A5"/>
<path d="M825.528 526.29L827.112 527.722L837.733 521.401L836.467 520.279L825.528 526.29Z" fill="#425B64"/>
<path d="M852.368 509.373L851.262 516.73C851.262 516.73 876.801 549.011 903.054 522.546L902.152 505.519C902.152 505.519 884.571 538.358 852.368 509.373Z" fill="#63DCC1"/>
<path d="M852.875 509.703C849.507 508.105 848.361 504.199 846.172 508.048C842.142 515.137 851.646 517.092 851.646 517.092L852.875 509.703Z" fill="#E6AC9E"/>
<path d="M851.506 494.339L844.248 515.706L844.168 518.707L846.131 516.585L853.253 495.222C853.601 493.551 852.274 492.821 851.506 494.339Z" fill="#425B64"/>
<path d="M849.816 510.546C849.816 510.546 845.639 511.582 845.295 510.683C844.95 509.785 848.635 508.538 849.5 507.338C850.363 506.139 851.665 509.717 851.665 509.717L849.816 510.546Z" fill="#E6AC9E"/>
<path d="M905.152 499.187L900.533 489.388L897.059 492.853L897.112 503.755L905.152 499.187Z" fill="#E6AC9E"/>
<path d="M890.226 479.265C888.493 486.584 889.642 492.44 894.99 493.347C899.838 494.17 904.574 486.706 904.574 486.706C908.939 478.393 893.227 466.582 890.226 479.265Z" fill="#E6AC9E"/>
<path d="M895.499 499.381L905.544 494.812L907.917 500.215L893.3 506.863L895.499 499.381Z" fill="#A5A5A5"/>
<path d="M845.695 547.402L846.178 556.566C845.901 556.771 875.45 572.044 890.887 537.977C890.887 537.977 886.035 558.827 879.969 575.733C879.969 575.733 894.172 587.378 914.233 585.908C914.233 585.908 921.372 523.385 909.438 502.311C903.115 491.143 892.006 507.097 888.809 517.28C884.746 530.216 875.283 559.088 845.695 547.402Z" fill="#63DCC1"/>
<path d="M846.066 548.226C846.066 548.226 840.939 546.179 838.871 547.313C836.804 548.448 839.242 553.162 841.356 555.889C843.47 558.615 846.549 557.383 846.549 557.383L846.066 548.226Z" fill="#E6AC9E"/>
<path d="M905 475.43C905 475.43 902.309 468.847 895.396 470.505C894.618 469.116 893.55 467.896 892.278 466.984C891.62 466.509 890.885 466.107 890.098 466.031C889.31 465.955 888.463 466.26 888.053 466.95C887.641 467.641 887.826 468.716 888.531 469.107C886.977 468.663 885.238 469.149 884.142 470.332C883.046 471.515 882.638 473.35 883.11 474.96C883.402 475.949 884.072 476.893 885.02 477.194C885.457 477.333 885.935 477.265 886.343 477.073C886.401 477.427 886.538 477.773 886.74 478.075C887.897 479.804 889.999 480.802 891.968 480.556C892.957 480.431 893.89 479.996 894.653 479.346C897.648 481.336 900.464 481.832 901.74 481.519C902.772 481.265 902.721 482.408 902.161 484.582C904.973 483.571 903.747 487.056 901.679 488.149C901.01 489.438 900.574 491.26 900.574 491.26C900.574 491.26 907.621 487.459 907.979 482.619C908.413 476.758 905 475.43 905 475.43Z" fill="#33464B"/>
</g>
<defs>
<clipPath id="clip0_3_395">
<rect width="1125" height="904" fill="white"/>
</clipPath>
</defs>
</svg>
